<mxfile host="Electron" agent="Mozilla/5.0 (Windows NT 10.0; Win64; x64) AppleWebKit/537.36 (KHTML, like Gecko) draw.io/24.7.8 Chrome/128.0.6613.36 Electron/32.0.1 Safari/537.36" version="24.7.8">
  <diagram name="페이지-1" id="hF5XEcV9PANwYzC8ECBD">
    <mxGraphModel dx="1674" dy="844" grid="1" gridSize="10" guides="1" tooltips="1" connect="1" arrows="1" fold="1" page="1" pageScale="1" pageWidth="827" pageHeight="1169" math="0" shadow="0">
      <root>
        <mxCell id="0" />
        <mxCell id="1" parent="0" />
        <mxCell id="MMiTcNGauiOXxp5m6pyz-1" value="&lt;b&gt;START&lt;/b&gt;" style="strokeWidth=2;html=1;shape=mxgraph.flowchart.terminator;whiteSpace=wrap;" vertex="1" parent="1">
          <mxGeometry x="180" y="10" width="100" height="60" as="geometry" />
        </mxCell>
        <mxCell id="MMiTcNGauiOXxp5m6pyz-4" value="" style="group" vertex="1" connectable="0" parent="1">
          <mxGeometry x="70" y="90" width="370" height="100" as="geometry" />
        </mxCell>
        <mxCell id="MMiTcNGauiOXxp5m6pyz-2" value="" style="verticalLabelPosition=bottom;verticalAlign=top;html=1;shape=hexagon;perimeter=hexagonPerimeter2;arcSize=6;size=0.27;" vertex="1" parent="MMiTcNGauiOXxp5m6pyz-4">
          <mxGeometry width="332.99999999999994" height="100" as="geometry" />
        </mxCell>
        <mxCell id="MMiTcNGauiOXxp5m6pyz-3" value="&lt;div&gt;&lt;div&gt;&lt;b&gt;int[] arr = {2,8,10,16,22,30,31,69};&lt;/b&gt;&lt;/div&gt;&lt;/div&gt;&lt;div&gt;&lt;b&gt;int low = 0;&lt;/b&gt;&lt;/div&gt;&lt;div&gt;&lt;b&gt;int high = 7;&lt;/b&gt;&lt;/div&gt;&lt;div&gt;&lt;b&gt;int mid =&amp;nbsp; 0;&lt;/b&gt;&lt;/div&gt;&lt;div&gt;&lt;b&gt;int idx = -1;&lt;/b&gt;&lt;/div&gt;" style="text;html=1;align=left;verticalAlign=middle;whiteSpace=wrap;rounded=0;" vertex="1" parent="MMiTcNGauiOXxp5m6pyz-4">
          <mxGeometry x="73.99999999999999" y="35" width="277.5" height="30" as="geometry" />
        </mxCell>
        <mxCell id="MMiTcNGauiOXxp5m6pyz-41" value="" style="edgeStyle=orthogonalEdgeStyle;rounded=0;orthogonalLoop=1;jettySize=auto;html=1;entryX=0.379;entryY=-0.007;entryDx=0;entryDy=0;entryPerimeter=0;" edge="1" parent="1" source="MMiTcNGauiOXxp5m6pyz-5" target="MMiTcNGauiOXxp5m6pyz-6">
          <mxGeometry relative="1" as="geometry" />
        </mxCell>
        <mxCell id="MMiTcNGauiOXxp5m6pyz-5" value="&lt;b&gt;&lt;font style=&quot;font-size: 14px;&quot;&gt;target&lt;/font&gt;&lt;/b&gt;" style="shape=parallelogram;html=1;strokeWidth=2;perimeter=parallelogramPerimeter;whiteSpace=wrap;rounded=1;arcSize=0;size=0.23;" vertex="1" parent="1">
          <mxGeometry x="171.5" y="230" width="130" height="50" as="geometry" />
        </mxCell>
        <mxCell id="MMiTcNGauiOXxp5m6pyz-31" value="" style="edgeStyle=orthogonalEdgeStyle;rounded=0;orthogonalLoop=1;jettySize=auto;html=1;" edge="1" parent="1" source="MMiTcNGauiOXxp5m6pyz-6" target="MMiTcNGauiOXxp5m6pyz-30">
          <mxGeometry relative="1" as="geometry" />
        </mxCell>
        <mxCell id="MMiTcNGauiOXxp5m6pyz-6" value="&lt;font style=&quot;font-size: 14px;&quot;&gt;low&amp;lt;=high&lt;/font&gt;" style="swimlane;whiteSpace=wrap;html=1;" vertex="1" parent="1">
          <mxGeometry x="20" y="320" width="570" height="570" as="geometry" />
        </mxCell>
        <mxCell id="MMiTcNGauiOXxp5m6pyz-29" value="" style="edgeStyle=orthogonalEdgeStyle;rounded=0;orthogonalLoop=1;jettySize=auto;html=1;" edge="1" parent="MMiTcNGauiOXxp5m6pyz-6" source="MMiTcNGauiOXxp5m6pyz-9" target="MMiTcNGauiOXxp5m6pyz-11">
          <mxGeometry relative="1" as="geometry" />
        </mxCell>
        <mxCell id="MMiTcNGauiOXxp5m6pyz-9" value="&lt;div&gt;&lt;b&gt;&lt;font style=&quot;font-size: 14px;&quot;&gt;mid = (low+high)/2;&lt;/font&gt;&lt;/b&gt;&lt;/div&gt;" style="rounded=1;whiteSpace=wrap;html=1;absoluteArcSize=1;arcSize=14;strokeWidth=2;" vertex="1" parent="MMiTcNGauiOXxp5m6pyz-6">
          <mxGeometry x="20" y="60" width="220" height="50" as="geometry" />
        </mxCell>
        <mxCell id="MMiTcNGauiOXxp5m6pyz-13" value="" style="edgeStyle=orthogonalEdgeStyle;rounded=0;orthogonalLoop=1;jettySize=auto;html=1;" edge="1" parent="MMiTcNGauiOXxp5m6pyz-6" source="MMiTcNGauiOXxp5m6pyz-11">
          <mxGeometry relative="1" as="geometry">
            <mxPoint x="130" y="360" as="targetPoint" />
          </mxGeometry>
        </mxCell>
        <mxCell id="MMiTcNGauiOXxp5m6pyz-16" value="" style="edgeStyle=orthogonalEdgeStyle;rounded=0;orthogonalLoop=1;jettySize=auto;html=1;" edge="1" parent="MMiTcNGauiOXxp5m6pyz-6" source="MMiTcNGauiOXxp5m6pyz-11">
          <mxGeometry relative="1" as="geometry">
            <mxPoint x="300" y="310" as="targetPoint" />
          </mxGeometry>
        </mxCell>
        <mxCell id="MMiTcNGauiOXxp5m6pyz-11" value="&lt;b&gt;arr[mid]==target&lt;/b&gt;" style="strokeWidth=2;html=1;shape=mxgraph.flowchart.decision;whiteSpace=wrap;" vertex="1" parent="MMiTcNGauiOXxp5m6pyz-6">
          <mxGeometry x="80" y="180" width="100" height="110" as="geometry" />
        </mxCell>
        <mxCell id="MMiTcNGauiOXxp5m6pyz-14" value="&lt;b&gt;idx = mid;&lt;br&gt;low = high +1;&lt;/b&gt;" style="rounded=1;whiteSpace=wrap;html=1;" vertex="1" parent="MMiTcNGauiOXxp5m6pyz-6">
          <mxGeometry x="68" y="360" width="140" height="60" as="geometry" />
        </mxCell>
        <mxCell id="MMiTcNGauiOXxp5m6pyz-19" value="" style="edgeStyle=orthogonalEdgeStyle;rounded=0;orthogonalLoop=1;jettySize=auto;html=1;" edge="1" parent="MMiTcNGauiOXxp5m6pyz-6" source="MMiTcNGauiOXxp5m6pyz-17" target="MMiTcNGauiOXxp5m6pyz-18">
          <mxGeometry relative="1" as="geometry" />
        </mxCell>
        <mxCell id="MMiTcNGauiOXxp5m6pyz-21" value="" style="edgeStyle=orthogonalEdgeStyle;rounded=0;orthogonalLoop=1;jettySize=auto;html=1;" edge="1" parent="MMiTcNGauiOXxp5m6pyz-6" source="MMiTcNGauiOXxp5m6pyz-17">
          <mxGeometry relative="1" as="geometry">
            <mxPoint x="460" y="475" as="targetPoint" />
          </mxGeometry>
        </mxCell>
        <mxCell id="MMiTcNGauiOXxp5m6pyz-17" value="&lt;b&gt;target&amp;lt;arr[mid]&lt;/b&gt;" style="rhombus;whiteSpace=wrap;html=1;" vertex="1" parent="MMiTcNGauiOXxp5m6pyz-6">
          <mxGeometry x="244" y="310" width="110" height="100" as="geometry" />
        </mxCell>
        <mxCell id="MMiTcNGauiOXxp5m6pyz-26" value="" style="edgeStyle=orthogonalEdgeStyle;rounded=0;orthogonalLoop=1;jettySize=auto;html=1;" edge="1" parent="MMiTcNGauiOXxp5m6pyz-6" source="MMiTcNGauiOXxp5m6pyz-18">
          <mxGeometry relative="1" as="geometry">
            <mxPoint x="299" y="570" as="targetPoint" />
          </mxGeometry>
        </mxCell>
        <mxCell id="MMiTcNGauiOXxp5m6pyz-18" value="&lt;div&gt;&lt;b&gt;high = mid - 1;&lt;/b&gt;&lt;/div&gt;" style="rounded=1;whiteSpace=wrap;html=1;absoluteArcSize=1;arcSize=14;strokeWidth=2;" vertex="1" parent="MMiTcNGauiOXxp5m6pyz-6">
          <mxGeometry x="234" y="450" width="130" height="50" as="geometry" />
        </mxCell>
        <mxCell id="MMiTcNGauiOXxp5m6pyz-28" value="" style="edgeStyle=orthogonalEdgeStyle;rounded=0;orthogonalLoop=1;jettySize=auto;html=1;" edge="1" parent="MMiTcNGauiOXxp5m6pyz-6" source="MMiTcNGauiOXxp5m6pyz-22">
          <mxGeometry relative="1" as="geometry">
            <mxPoint x="460" y="570" as="targetPoint" />
          </mxGeometry>
        </mxCell>
        <mxCell id="MMiTcNGauiOXxp5m6pyz-22" value="&lt;div&gt;&lt;b&gt;low = mid + 1;&lt;/b&gt;&lt;/div&gt;" style="rounded=1;whiteSpace=wrap;html=1;absoluteArcSize=1;arcSize=14;strokeWidth=2;" vertex="1" parent="MMiTcNGauiOXxp5m6pyz-6">
          <mxGeometry x="395" y="480" width="130" height="50" as="geometry" />
        </mxCell>
        <mxCell id="MMiTcNGauiOXxp5m6pyz-47" value="&lt;b&gt;N&lt;/b&gt;" style="text;html=1;align=center;verticalAlign=middle;whiteSpace=wrap;rounded=0;" vertex="1" parent="MMiTcNGauiOXxp5m6pyz-6">
          <mxGeometry x="160" y="200" width="60" height="30" as="geometry" />
        </mxCell>
        <mxCell id="MMiTcNGauiOXxp5m6pyz-48" value="&lt;b&gt;Y&lt;/b&gt;" style="text;html=1;align=center;verticalAlign=middle;whiteSpace=wrap;rounded=0;" vertex="1" parent="MMiTcNGauiOXxp5m6pyz-6">
          <mxGeometry x="80" y="270" width="60" height="30" as="geometry" />
        </mxCell>
        <mxCell id="MMiTcNGauiOXxp5m6pyz-50" value="&lt;b&gt;Y&lt;/b&gt;" style="text;html=1;align=center;verticalAlign=middle;whiteSpace=wrap;rounded=0;" vertex="1" parent="MMiTcNGauiOXxp5m6pyz-6">
          <mxGeometry x="255" y="400" width="60" height="30" as="geometry" />
        </mxCell>
        <mxCell id="MMiTcNGauiOXxp5m6pyz-51" value="&lt;b&gt;N&lt;/b&gt;" style="text;html=1;align=center;verticalAlign=middle;whiteSpace=wrap;rounded=0;" vertex="1" parent="MMiTcNGauiOXxp5m6pyz-6">
          <mxGeometry x="334" y="330" width="60" height="30" as="geometry" />
        </mxCell>
        <mxCell id="MMiTcNGauiOXxp5m6pyz-24" value="" style="edgeStyle=orthogonalEdgeStyle;rounded=0;orthogonalLoop=1;jettySize=auto;html=1;" edge="1" parent="1" source="MMiTcNGauiOXxp5m6pyz-14">
          <mxGeometry relative="1" as="geometry">
            <mxPoint x="158" y="890" as="targetPoint" />
          </mxGeometry>
        </mxCell>
        <mxCell id="MMiTcNGauiOXxp5m6pyz-33" value="" style="edgeStyle=orthogonalEdgeStyle;rounded=0;orthogonalLoop=1;jettySize=auto;html=1;" edge="1" parent="1" source="MMiTcNGauiOXxp5m6pyz-30" target="MMiTcNGauiOXxp5m6pyz-32">
          <mxGeometry relative="1" as="geometry" />
        </mxCell>
        <mxCell id="MMiTcNGauiOXxp5m6pyz-36" value="" style="edgeStyle=orthogonalEdgeStyle;rounded=0;orthogonalLoop=1;jettySize=auto;html=1;" edge="1" parent="1" source="MMiTcNGauiOXxp5m6pyz-30">
          <mxGeometry relative="1" as="geometry">
            <mxPoint x="480" y="1070" as="targetPoint" />
          </mxGeometry>
        </mxCell>
        <mxCell id="MMiTcNGauiOXxp5m6pyz-30" value="&lt;b&gt;idx==-1;&lt;/b&gt;" style="rhombus;whiteSpace=wrap;html=1;" vertex="1" parent="1">
          <mxGeometry x="260" y="940" width="90" height="70" as="geometry" />
        </mxCell>
        <mxCell id="MMiTcNGauiOXxp5m6pyz-32" value="" style="shape=waypoint;sketch=0;size=6;pointerEvents=1;points=[];fillColor=default;resizable=0;rotatable=0;perimeter=centerPerimeter;snapToPoint=1;" vertex="1" parent="1">
          <mxGeometry x="295" y="1060" width="20" height="20" as="geometry" />
        </mxCell>
        <mxCell id="MMiTcNGauiOXxp5m6pyz-56" value="" style="edgeStyle=orthogonalEdgeStyle;rounded=0;orthogonalLoop=1;jettySize=auto;html=1;" edge="1" parent="1" source="MMiTcNGauiOXxp5m6pyz-34">
          <mxGeometry relative="1" as="geometry">
            <mxPoint x="300" y="1240" as="targetPoint" />
          </mxGeometry>
        </mxCell>
        <mxCell id="MMiTcNGauiOXxp5m6pyz-34" value="&lt;b&gt;&quot;Not Found&quot;&lt;/b&gt;" style="strokeWidth=2;html=1;shape=mxgraph.flowchart.display;whiteSpace=wrap;" vertex="1" parent="1">
          <mxGeometry x="250" y="1070" width="100" height="60" as="geometry" />
        </mxCell>
        <mxCell id="MMiTcNGauiOXxp5m6pyz-58" value="" style="edgeStyle=orthogonalEdgeStyle;rounded=0;orthogonalLoop=1;jettySize=auto;html=1;" edge="1" parent="1" source="MMiTcNGauiOXxp5m6pyz-37">
          <mxGeometry relative="1" as="geometry">
            <mxPoint x="480" y="1240" as="targetPoint" />
          </mxGeometry>
        </mxCell>
        <mxCell id="MMiTcNGauiOXxp5m6pyz-37" value="&lt;b&gt;&quot;Target Index : &quot; + idx&amp;nbsp;&lt;/b&gt;" style="strokeWidth=2;html=1;shape=mxgraph.flowchart.display;whiteSpace=wrap;" vertex="1" parent="1">
          <mxGeometry x="400" y="1070" width="160" height="60" as="geometry" />
        </mxCell>
        <mxCell id="MMiTcNGauiOXxp5m6pyz-39" value="" style="edgeStyle=orthogonalEdgeStyle;rounded=0;orthogonalLoop=1;jettySize=auto;html=1;" edge="1" parent="1" source="MMiTcNGauiOXxp5m6pyz-2" target="MMiTcNGauiOXxp5m6pyz-5">
          <mxGeometry relative="1" as="geometry" />
        </mxCell>
        <mxCell id="MMiTcNGauiOXxp5m6pyz-42" value="" style="endArrow=classic;html=1;rounded=0;" edge="1" parent="1">
          <mxGeometry width="50" height="50" relative="1" as="geometry">
            <mxPoint x="233" y="69" as="sourcePoint" />
            <mxPoint x="233" y="89" as="targetPoint" />
          </mxGeometry>
        </mxCell>
        <mxCell id="MMiTcNGauiOXxp5m6pyz-44" value="" style="edgeStyle=orthogonalEdgeStyle;rounded=0;orthogonalLoop=1;jettySize=auto;html=1;entryX=0.379;entryY=-0.007;entryDx=0;entryDy=0;entryPerimeter=0;" edge="1" parent="1">
          <mxGeometry relative="1" as="geometry">
            <mxPoint x="149" y="345" as="sourcePoint" />
            <mxPoint x="148" y="381" as="targetPoint" />
          </mxGeometry>
        </mxCell>
        <mxCell id="MMiTcNGauiOXxp5m6pyz-52" value="&lt;b&gt;Y&lt;/b&gt;" style="text;html=1;align=center;verticalAlign=middle;whiteSpace=wrap;rounded=0;" vertex="1" parent="1">
          <mxGeometry x="260" y="1000" width="60" height="30" as="geometry" />
        </mxCell>
        <mxCell id="MMiTcNGauiOXxp5m6pyz-53" value="&lt;b&gt;N&lt;/b&gt;" style="text;html=1;align=center;verticalAlign=middle;whiteSpace=wrap;rounded=0;" vertex="1" parent="1">
          <mxGeometry x="330" y="950" width="60" height="30" as="geometry" />
        </mxCell>
        <mxCell id="MMiTcNGauiOXxp5m6pyz-59" value="END" style="rounded=1;whiteSpace=wrap;html=1;" vertex="1" parent="1">
          <mxGeometry x="240" y="1240" width="120" height="60" as="geometry" />
        </mxCell>
        <mxCell id="MMiTcNGauiOXxp5m6pyz-60" value="END" style="rounded=1;whiteSpace=wrap;html=1;" vertex="1" parent="1">
          <mxGeometry x="420" y="1240" width="120" height="60" as="geometry" />
        </mxCell>
      </root>
    </mxGraphModel>
  </diagram>
</mxfile>
